<?xml version="1.0" encoding="UTF-8"?>
<svg width="50px" height="46px" viewBox="0 0 50 46" version="1.1" xmlns="http://www.w3.org/2000/svg" xmlns:xlink="http://www.w3.org/1999/xlink">
    <!-- Generator: Sketch 48.1 (47250) - http://www.bohemiancoding.com/sketch -->
    <title>003-information</title>
    <desc>Created with Sketch.</desc>
    <defs></defs>
    <g id="support" stroke="none" stroke-width="1" fill="none" fill-rule="evenodd" transform="translate(-165.000000, -513.000000)">
        <g id="Body" transform="translate(165.000000, 256.000000)" fill="#263238">
            <g id="text">
                <g id="item-2" transform="translate(0.000000, 255.000000)">
                    <g id="003-information">
                        <g transform="translate(0.000000, 2.500000)">
                            <path d="M44.2210526,15.6864522 L28.120078,15.6864522 C28.1755361,15.3919103 28.2047758,15.091423 28.2047758,14.7853801 L28.2047758,4.89434698 C28.2047758,2.22066277 26.0296296,0.0456140351 23.3560429,0.0456140351 L4.84766082,0.0456140351 C2.1745614,0.0456140351 0,2.22066277 0,4.89434698 L0,14.7853801 C0,17.4583821 2.1745614,19.6329435 4.84766082,19.6329435 L7.6957115,19.6329435 L7.5420078,23.2136452 C7.52816764,23.5367446 7.6957115,23.8405458 7.97641326,24.0010721 C8.10964912,24.0772904 8.25769981,24.1152047 8.40575049,24.1152047 C8.56939571,24.1152047 8.732846,24.0687135 8.8754386,23.9764133 L15.5865497,19.632846 L16.4368421,19.632846 C16.2612086,20.1797271 16.1653021,20.7619883 16.1653021,21.3663743 L16.1653021,33.3230994 C16.1653021,36.4550682 18.7133528,39.0032164 21.8454191,39.0032164 L24.2994152,39.0032164 L29.7101365,44.5290448 C29.8755361,44.6980507 30.0993177,44.788694 30.3277778,44.788694 C30.4237817,44.788694 30.5205653,44.7727096 30.6143275,44.7396686 C30.9310916,44.6283626 31.1546784,44.3436647 31.1878168,44.0095517 L31.6846004,39.0032164 L44.2211501,39.0032164 C47.3539961,39.0032164 49.9026316,36.4550682 49.9026316,33.3230994 L49.9026316,21.3664717 C49.9025341,18.2344055 47.3538012,15.6864522 44.2210526,15.6864522 Z M17.3469786,17.9040936 L15.3310916,17.9040936 C15.164425,17.9040936 15.0013645,17.9522417 14.8614035,18.042885 L9.34103314,21.6157895 L9.46169591,18.805653 C9.47183236,18.5701754 9.38528265,18.3408382 9.22231969,18.1705653 C9.05925926,18.0002924 8.83382066,17.9040936 8.59814815,17.9040936 L4.84775828,17.9040936 C3.12797271,17.9040936 1.72875244,16.5050682 1.72875244,14.7853801 L1.72875244,4.89434698 C1.72875244,3.17397661 3.12797271,1.77446394 4.84766082,1.77446394 L23.3562378,1.77446394 C25.0766082,1.77446394 26.4761209,3.17407407 26.4761209,4.89434698 L26.4761209,14.7853801 C26.4761209,15.0950292 26.431384,15.3964912 26.3435673,15.6864522 L21.8453216,15.6864522 C20.0157895,15.6864522 18.3866472,16.5567251 17.3469786,17.9040936 Z M48.1738791,33.3230994 C48.1738791,35.5018519 46.4006823,37.2744639 44.2211501,37.2744639 L30.9015595,37.2744639 C30.4572125,37.2744639 30.0851852,37.611306 30.0413255,38.0536062 L29.6501949,41.9969786 L25.2804094,37.5342105 C25.1179337,37.3681287 24.8952242,37.2745614 24.6628655,37.2745614 L21.8455166,37.2745614 C19.6667641,37.2745614 17.894152,35.5019493 17.894152,33.3231969 L17.894152,21.3664717 C17.894152,19.1877193 19.6667641,17.4152047 21.8455166,17.4152047 L44.2212476,17.4152047 L44.2212476,17.4151072 C46.4007797,17.4151072 48.1739766,19.1876218 48.1739766,21.3663743 L48.1739766,33.3230994 L48.1738791,33.3230994 Z" id="Shape" fill-rule="nonzero"></path>
                            <path d="M17.8664717,6.60389864 C17.7489279,4.71179337 16.2334308,3.1962963 14.3413255,3.0788499 C13.2880117,3.01374269 12.2861598,3.37397661 11.5197856,4.09424951 C10.7640351,4.80448343 10.3307992,5.80633528 10.3307992,6.84288499 C10.3307018,7.32046784 10.7175439,7.70740741 11.1951267,7.70740741 C11.6727096,7.70740741 12.0595517,7.32037037 12.0595517,6.84298246 C12.0595517,6.27319688 12.2883041,5.74454191 12.7037037,5.3539961 C13.1187135,4.96393762 13.6623782,4.76871345 14.2341131,4.80419103 C15.2408382,4.86666667 16.0783626,5.70419103 16.1409357,6.71081871 C16.1881092,7.47124756 15.8148148,8.19005848 15.1665692,8.58693957 C13.9588694,9.32621832 13.2378168,10.6038012 13.2378168,12.0045809 C13.2378168,12.4819688 13.6247563,12.8690058 14.1022417,12.8690058 C14.5797271,12.8690058 14.9666667,12.4819688 14.9666667,12.0045809 C14.9666667,11.2103314 15.3788499,10.4840156 16.0692008,10.0614035 C17.2646199,9.3297271 17.9534113,8.00477583 17.8664717,6.60389864 Z" id="Shape" fill-rule="nonzero"></path>
                            <path d="M33.0336257,20.8966862 C32.5561404,20.8966862 32.1692008,21.2837232 32.1692008,21.7611111 L32.1692008,29.077193 C32.1692008,29.5545809 32.5562378,29.9416179 33.0336257,29.9416179 C33.5111111,29.9416179 33.8980507,29.5545809 33.8980507,29.077193 L33.8980507,21.7611111 C33.8979532,21.2837232 33.5111111,20.8966862 33.0336257,20.8966862 Z" id="Shape" fill-rule="nonzero"></path>
                            <circle id="Oval" fill-rule="nonzero" cx="33.0327485" cy="32.9500975" r="1"></circle>
                            <circle id="Oval" fill-rule="nonzero" cx="14.1012671" cy="15.2091618" r="1"></circle>
                        </g>
                    </g>
                </g>
            </g>
        </g>
    </g>
</svg>