<?xml version="1.0" encoding="UTF-8"?>
<svg width="42px" height="46px" viewBox="0 0 42 46" version="1.1" xmlns="http://www.w3.org/2000/svg" xmlns:xlink="http://www.w3.org/1999/xlink">
    <!-- Generator: Sketch 48.1 (47250) - http://www.bohemiancoding.com/sketch -->
    <title>attachment</title>
    <desc>Created with Sketch.</desc>
    <defs></defs>
    <g id="support" stroke="none" stroke-width="1" fill="none" fill-rule="evenodd" transform="translate(-169.000000, -683.000000)">
        <g id="Body" transform="translate(165.000000, 256.000000)" fill="#263238">
            <g id="text">
                <g id="item-4" transform="translate(0.000000, 425.000000)">
                    <g id="attachment">
                        <g transform="translate(4.500000, 2.500000)" id="Shape">
                            <path d="M38.1293262,3.09375 C34.0043555,-1.0312207 27.4042969,-1.0312207 23.2793262,3.09375 L3.70432617,22.7437207 C3.40435547,23.0436914 3.40435547,23.4936914 3.70432617,23.79375 C4.00429688,24.0938086 4.45429688,24.0937207 4.75435547,23.79375 L24.3293555,4.1437793 C27.8543848,0.61875 33.5543555,0.61875 37.0793848,4.1437793 C40.6044141,7.66880859 40.6044141,13.3687793 37.0793848,16.8938086 L12.4042676,41.56875 C9.92926758,44.04375 5.87926758,44.04375 3.40426758,41.56875 C0.929267578,39.09375 0.929267578,35.04375 3.40426758,32.56875 L23.2792383,12.6187207 C24.7792676,11.19375 27.1042383,11.1186914 28.6042676,12.6187207 C30.0292383,14.11875 30.0292383,16.5186914 28.6042676,17.94375 L13.7542676,32.8687207 C13.4542969,33.1686914 13.4542969,33.6186914 13.7542676,33.91875 C14.0542383,34.2187207 14.5042383,34.2187207 14.8042969,33.91875 L29.6542969,19.06875 C31.6792969,17.04375 31.6792969,13.66875 29.6542969,11.64375 C27.6292969,9.61875 24.2542969,9.61875 22.2292969,11.64375 L2.35432617,31.5187207 C-0.720703125,34.5186914 -0.720703125,39.54375 2.35432617,42.6186914 C3.85435547,44.1936914 5.87935547,44.9436621 7.90435547,44.9436621 C9.92935547,44.9436621 11.9543555,44.1936914 13.4543848,42.6186914 L38.1293262,17.94375 C40.0793555,15.9937207 41.2043555,13.2937207 41.2043555,10.51875 C41.2042676,7.7437793 40.0792676,5.0437793 38.1293262,3.09375 Z" fill-rule="nonzero"></path>
                        </g>
                    </g>
                </g>
            </g>
        </g>
    </g>
</svg>