<?xml version="1.0" encoding="UTF-8"?>
<svg width="140px" height="150px" viewBox="0 0 140 150" version="1.1" xmlns="http://www.w3.org/2000/svg" xmlns:xlink="http://www.w3.org/1999/xlink">
    <!-- Generator: Sketch 48.1 (47250) - http://www.bohemiancoding.com/sketch -->
    <title>email</title>
    <desc>Created with Sketch.</desc>
    <defs></defs>
    <g id="dev-account-wait-email" stroke="none" stroke-width="1" fill="none" fill-rule="evenodd" transform="translate(-651.000000, -422.000000)">
        <g id="email" transform="translate(645.000000, 422.000000)">
            <g id="if_Letter_1872934" stroke-width="1" fill-rule="evenodd" transform="translate(6.000000, 0.000000)" fill="#263238">
                <path d="M121.2,55.92 L121.2,3.6 C121.2,1.68 119.52,0 117.48,0 L21.72,0 C19.68,0 18,1.68 18,3.6 L18,55.92 L0,73.92 L0,146.4 C0,148.44 1.56,150 3.6,150 L135.6,150 C137.64,150 139.2,148.44 139.2,146.4 L139.2,73.92 L121.2,55.92 Z M121.2,59.28 L135.96,74.16 L121.2,82.2 L121.2,59.28 Z M20.4,3.6 C20.4,3 21,2.4 21.72,2.4 L117.48,2.4 C118.2,2.4 118.8,3 118.8,3.6 L118.8,83.52 L84.48,102.12 L71.88,91.56 C70.44,90.48 68.52,90.48 67.32,91.56 L54.84,102.12 L20.4,83.52 L20.4,3.6 Z M18,59.28 L18,82.2 L3.24,74.16 L18,59.28 Z M2.4,146.28 L2.4,76.44 L52.8,103.8 L2.4,146.28 Z M4.44,147.6 L68.88,93.48 C69.24,93.12 69.96,93.12 70.44,93.48 L134.76,147.6 L4.44,147.6 Z M136.8,146.28 L86.4,103.8 L136.8,76.44 L136.8,146.28 Z" id="Shape" fill-rule="nonzero"></path>
            </g>
            <path d="M93.3717323,52.9854034 L71.2001899,77.9282082 L57.8430222,67.2427626 C57.222698,66.7450606 56.3124082,66.8474862 55.8161488,67.4678104 C55.3184468,68.0910199 55.4194298,68.9984244 56.0411967,69.4961264 L70.4673418,81.0370425 C70.7327828,81.2491068 71.0516007,81.3529751 71.3689758,81.3529751 C71.7671375,81.3529751 72.1638564,81.188517 72.4480515,80.8682566 L95.5298836,54.9011954 C96.0593232,54.3068383 96.0059464,53.3936633 95.4101466,52.8656664 C94.8129042,52.3347842 93.9026145,52.388161 93.3717323,52.9854034 Z" id="Shape" fill="#FF5722" fill-rule="nonzero"></path>
            <path d="M43.5,17.25 L109.5,17.25" id="Line" stroke="#263238" stroke-width="2" stroke-linecap="round"></path>
            <path d="M49.5,27.75 L103.5,27.75" id="Line-Copy" stroke="#263238" stroke-width="2" stroke-linecap="round"></path>
            <path d="M55.5,39.75 L97.5,39.75" id="Line-Copy-2" stroke="#263238" stroke-width="2" stroke-linecap="round"></path>
        </g>
    </g>
</svg>