<?xml version="1.0" encoding="UTF-8"?>
<svg width="37px" height="50px" viewBox="0 0 37 50" version="1.1" xmlns="http://www.w3.org/2000/svg" xmlns:xlink="http://www.w3.org/1999/xlink">
    <!-- Generator: Sketch 48.1 (47250) - http://www.bohemiancoding.com/sketch -->
    <title>004-script</title>
    <desc>Created with Sketch.</desc>
    <defs></defs>
    <g id="support" stroke="none" stroke-width="1" fill="none" fill-rule="evenodd" transform="translate(-172.000000, -426.000000)">
        <g id="Body" transform="translate(165.000000, 256.000000)" fill="#263238">
            <g id="text">
                <g id="item-1" transform="translate(0.000000, 170.000000)">
                    <g id="004-script">
                        <g transform="translate(7.000000, 0.000000)" id="Shape">
                            <path d="M35.2484694,7.0305102 L32.9179592,7.01744898 C32.9164286,7.01744898 32.915,7.01744898 32.9134694,7.01744898 C32.9090816,7.01744898 32.904898,7.01806122 32.9006122,7.01806122 L32.9006122,5.46806122 C32.9006122,5.03663265 32.5509184,4.68683673 32.1194898,4.68683673 L29.7760204,4.68683673 L29.7760204,3.12469388 C29.7760204,2.69326531 29.4263265,2.34357143 28.994898,2.34357143 L9.54795918,2.34357143 C9.44857143,1.03469388 8.35265306,0 7.01887755,0 C5.685,0 4.58918367,1.03469388 4.48979592,2.34346939 L0.872857143,2.34346939 C0.441428571,2.34346939 0.0917346939,2.69316327 0.0917346939,3.12459184 L0.0917346939,42.9639796 C0.0917346939,43.3954082 0.441428571,43.745102 0.872857143,43.745102 L2.43510204,43.745102 L2.43510204,46.0885714 C2.43510204,46.52 2.78479592,46.8696939 3.21622449,46.8696939 L4.77857143,46.8696939 L4.77857143,49.2131633 C4.77857143,49.6445918 5.12826531,49.9942857 5.55969388,49.9942857 L35.2439796,49.9942857 C35.6754082,49.9942857 36.025102,49.6445918 36.025102,49.2131633 L36.025102,7.81163265 C36.0253061,7.38193878 35.6782653,7.03285714 35.2484694,7.0305102 Z M7.01887755,1.56234694 C7.49010204,1.56234694 7.88418367,1.89846939 7.97428571,2.34346939 L6.06346939,2.34346939 C6.15346939,1.89846939 6.54755102,1.56234694 7.01887755,1.56234694 Z M1.65408163,42.1828571 L1.65408163,3.90581633 L4.48173469,3.90581633 L4.48173469,9.56122449 C4.48173469,10.9603061 5.61989796,12.0984694 7.01887755,12.0984694 C8.41795918,12.0984694 9.55602041,10.9602041 9.55602041,9.56122449 L9.55602041,6.04918367 C9.55602041,5.6177551 9.20632653,5.26806122 8.77479592,5.26806122 C8.34336735,5.26806122 7.99367347,5.6177551 7.99367347,6.04918367 L7.99367347,9.56122449 C7.99367347,10.0987755 7.55632653,10.5361224 7.01877551,10.5361224 C6.48122449,10.5361224 6.04397959,10.0987755 6.04397959,9.56122449 L6.04397959,3.90581633 L28.2134694,3.90581633 L28.2134694,42.1828571 L1.65408163,42.1828571 Z M3.99734694,45.307551 L3.99734694,43.7452041 L3.99744898,43.7452041 L28.9946939,43.7452041 C29.4261224,43.7452041 29.7758163,43.3955102 29.7758163,42.9640816 L29.7758163,6.24928571 L31.3381633,6.24928571 L31.3381633,45.307551 L3.99734694,45.307551 Z M6.34102041,48.4322449 L6.34102041,46.869898 L32.1193878,46.869898 C32.5508163,46.869898 32.9005102,46.5202041 32.9005102,46.0887755 L32.9005102,8.57938776 C32.9034694,8.5794898 32.9062245,8.57989796 32.9091837,8.57989796 L34.4628571,8.58857143 L34.4628571,48.4322449 L6.34102041,48.4322449 Z" fill-rule="nonzero"></path>
                            <path d="M20.4020408,17.1856122 L9.4655102,17.1856122 C9.03408163,17.1856122 8.68428571,17.5353061 8.68428571,17.9668367 C8.68438776,18.3981633 9.03408163,18.7479592 9.4655102,18.7479592 L20.4020408,18.7479592 C20.8334694,18.7479592 21.1831633,18.3982653 21.1831633,17.9668367 C21.1831633,17.5354082 20.8334694,17.1856122 20.4020408,17.1856122 Z" fill-rule="nonzero"></path>
                            <path d="M20.4020408,20.3103061 L9.4655102,20.3103061 C9.03408163,20.3103061 8.68428571,20.66 8.68428571,21.0915306 C8.68438776,21.5228571 9.03408163,21.8726531 9.4655102,21.8726531 L20.4020408,21.8726531 C20.8334694,21.8726531 21.1831633,21.5229592 21.1831633,21.0915306 C21.1831633,20.660102 20.8334694,20.3103061 20.4020408,20.3103061 Z" fill-rule="nonzero"></path>
                            <path d="M17.2772449,23.434898 L12.5902041,23.434898 C12.1587755,23.434898 11.8090816,23.7845918 11.8090816,24.2161224 C11.8090816,24.647551 12.1587755,24.9972449 12.5902041,24.9972449 L17.2772449,24.9972449 C17.7086735,24.9972449 18.0583673,24.647551 18.0583673,24.2161224 C18.0583673,23.7846939 17.7087755,23.434898 17.2772449,23.434898 Z" fill-rule="nonzero"></path>
                        </g>
                    </g>
                </g>
            </g>
        </g>
    </g>
</svg>