<?xml version="1.0" encoding="UTF-8"?>
<svg width="50px" height="50px" viewBox="0 0 50 50" version="1.1" xmlns="http://www.w3.org/2000/svg" xmlns:xlink="http://www.w3.org/1999/xlink">
    <!-- Generator: Sketch 48.1 (47250) - http://www.bohemiancoding.com/sketch -->
    <title>002-note-1</title>
    <desc>Created with Sketch.</desc>
    <defs></defs>
    <g id="support" stroke="none" stroke-width="1" fill="none" fill-rule="evenodd" transform="translate(-165.000000, -596.000000)">
        <g id="Body" transform="translate(165.000000, 256.000000)">
            <g id="text">
                <g id="item-3" transform="translate(0.000000, 340.000000)">
                    <g id="002-note-1">
                        <g id="Shape">
                            <path d="M36.71875,20.3125 C36.2873047,20.3125 35.9375,20.6623047 35.9375,21.09375 L35.9375,46.09375 C35.9375,47.3861328 34.8861328,48.4375 33.59375,48.4375 L3.90625,48.4375 C2.61386719,48.4375 1.5625,47.3861328 1.5625,46.09375 L1.5625,16.40625 C1.5625,15.1138672 2.61386719,14.0625 3.90625,14.0625 L28.90625,14.0625 C29.3376953,14.0625 29.6875,13.7126953 29.6875,13.28125 C29.6875,12.8498047 29.3376953,12.5 28.90625,12.5 L3.90625,12.5 C1.75234375,12.5 0,14.2523437 0,16.40625 L0,46.09375 C0,48.2476562 1.75234375,50 3.90625,50 L33.59375,50 C35.7476562,50 37.5,48.2476562 37.5,46.09375 L37.5,21.09375 C37.5,20.6623047 37.1501953,20.3125 36.71875,20.3125 Z" fill="#263238" fill-rule="nonzero"></path>
                            <path d="M49.0847656,0.915722656 C48.4947266,0.325195313 47.7099609,0 46.875,0 C46.0400391,0 45.2552734,0.325195313 44.6655273,0.915527344 L19.5708984,26.0100586 C19.4967773,26.0841797 19.4382812,26.1724609 19.3990234,26.2696289 L17.1499023,31.8330078 C17.0324219,32.1237305 17.1000977,32.456543 17.3217773,32.6782227 C17.4711914,32.8276367 17.6709961,32.9070313 17.8743164,32.9070313 C17.9728516,32.9070313 18.072168,32.8884766 18.1669922,32.8500977 L23.7303711,30.6009766 C23.8275391,30.5617188 23.9158203,30.5032227 23.9899414,30.4291016 L49.0844727,5.33466797 C49.6748047,4.74443359 50,3.95976563 50,3.125 C50,2.29023437 49.6748047,1.50556641 49.0847656,0.915722656 Z M23.5321289,28.6772461 L21.3227539,26.4678711 L44.4366211,3.35400391 L46.6459961,5.56337891 L23.5321289,28.6772461 Z M20.4597656,27.8146484 L22.1853516,29.5402344 L19.2886719,30.7113281 L20.4597656,27.8146484 Z M47.9796875,4.2296875 L47.7508789,4.45849609 L45.5415039,2.24912109 L45.7706055,2.02001953 C46.065332,1.725 46.4576172,1.5625 46.875,1.5625 C47.2923828,1.5625 47.684668,1.725 47.9797852,2.02041016 C48.2749023,2.31542969 48.4375,2.7078125 48.4375,3.125 C48.4375,3.5421875 48.2749023,3.93457031 47.9796875,4.2296875 Z" fill="#263238" fill-rule="nonzero"></path>
                            <path d="M23.4375,19.53125 C23.4375,19.0998047 23.0876953,18.75 22.65625,18.75 L7.03125,18.75 C6.59980469,18.75 6.25,19.0998047 6.25,19.53125 C6.25,19.9626953 6.59980469,20.3125 7.03125,20.3125 L22.65625,20.3125 C23.0876953,20.3125 23.4375,19.9626953 23.4375,19.53125 Z" fill="#263238" fill-rule="nonzero"></path>
                            <path d="M19.53125,23.4375 C19.53125,23.0060547 19.1814453,22.65625 18.75,22.65625 L7.03125,22.65625 C6.59980469,22.65625 6.25,23.0060547 6.25,23.4375 C6.25,23.8689453 6.59980469,24.21875 7.03125,24.21875 L18.75,24.21875 C19.1814453,24.21875 19.53125,23.8689453 19.53125,23.4375 Z" fill="#263238" fill-rule="nonzero"></path>
                            <path d="M16.40625,26.5625 L7.03125,26.5625 C6.59980469,26.5625 6.25,26.9123047 6.25,27.34375 C6.25,27.7751953 6.59980469,28.125 7.03125,28.125 L16.40625,28.125 C16.8376953,28.125 17.1875,27.7751953 17.1875,27.34375 C17.1875,26.9123047 16.8376953,26.5625 16.40625,26.5625 Z" fill="#263238" fill-rule="nonzero"></path>
                            <path d="M7.03125,32.03125 L14.84375,32.03125 C15.2751953,32.03125 15.625,31.6814453 15.625,31.25 C15.625,30.8185547 15.2751953,30.46875 14.84375,30.46875 L7.03125,30.46875 C6.59980469,30.46875 6.25,30.8185547 6.25,31.25 C6.25,31.6814453 6.59980469,32.03125 7.03125,32.03125 Z" fill="#263238" fill-rule="nonzero"></path>
                            <path d="M25.78125,31.25 C25.78125,31.6814453 26.1310547,32.03125 26.5625,32.03125 L30.46875,32.03125 C30.9001953,32.03125 31.25,31.6814453 31.25,31.25 C31.25,30.8185547 30.9001953,30.46875 30.46875,30.46875 L26.5625,30.46875 C26.1310547,30.46875 25.78125,30.8185547 25.78125,31.25 Z" fill="#263238" fill-rule="nonzero"></path>
                            <path d="M31.0214844,27.8964844 C31.1669922,27.7509766 31.25,27.5498047 31.25,27.34375 C31.25,27.1376953 31.1669922,26.9365234 31.0214844,26.7910156 C30.8759766,26.6455078 30.6748047,26.5625 30.46875,26.5625 C30.2636719,26.5625 30.0615234,26.6455078 29.9160156,26.7910156 C29.7705078,26.9365234 29.6875,27.1386719 29.6875,27.34375 C29.6875,27.5498047 29.7705078,27.7509766 29.9160156,27.8964844 C30.0615234,28.0419922 30.2636719,28.125 30.46875,28.125 C30.6738281,28.125 30.8759766,28.0419922 31.0214844,27.8964844 Z" fill="#263238" fill-rule="nonzero"></path>
                            <path d="M6.25,35.15625 C6.25,35.5876953 6.59980469,35.9375 7.03125,35.9375 L30.46875,35.9375 C30.9001953,35.9375 31.25,35.5876953 31.25,35.15625 C31.25,34.7248047 30.9001953,34.375 30.46875,34.375 L7.03125,34.375 C6.59980469,34.375 6.25,34.7248047 6.25,35.15625 Z" fill="#000000" fill-rule="nonzero"></path>
                            <path d="M30.46875,38.28125 L7.03125,38.28125 C6.59980469,38.28125 6.25,38.6310547 6.25,39.0625 C6.25,39.4939453 6.59980469,39.84375 7.03125,39.84375 L30.46875,39.84375 C30.9001953,39.84375 31.25,39.4939453 31.25,39.0625 C31.25,38.6310547 30.9001953,38.28125 30.46875,38.28125 Z" fill="#000000" fill-rule="nonzero"></path>
                            <path d="M30.46875,42.1875 L7.03125,42.1875 C6.59980469,42.1875 6.25,42.5373047 6.25,42.96875 C6.25,43.4001953 6.59980469,43.75 7.03125,43.75 L30.46875,43.75 C30.9001953,43.75 31.25,43.4001953 31.25,42.96875 C31.25,42.5373047 30.9001953,42.1875 30.46875,42.1875 Z" fill="#000000" fill-rule="nonzero"></path>
                        </g>
                    </g>
                </g>
            </g>
        </g>
    </g>
</svg>